<svg id="logo-exame" xmlns="http://www.w3.org/2000/svg" xmlns:xlink="http://www.w3.org/1999/xlink" width="235.454" height="40" viewBox="0 0 235.454 40">
  <defs>
    <clipPath id="clip-path">
      <rect id="Retângulo_145910" data-name="Retângulo 145910" width="235.314" height="40" fill="none"/>
    </clipPath>
  </defs>
  <rect id="Retângulo_195" data-name="Retângulo 195" width="235.454" height="40" fill="none"/>
  <g id="Grupo_73478" data-name="Grupo 73478">
    <g id="Grupo_73477" data-name="Grupo 73477" clip-path="url(#clip-path)">
      <path id="Caminho_40940" data-name="Caminho 40940" d="M10.923,31.551c1.5,0,2.926,1.354,2.872,7.87H8.04c.195-6.207,1.415-7.87,2.882-7.87m-2.91,9.7q0-.5.008-.971H20.757c0-6.325-3.593-10.2-9.835-10.2A11.173,11.173,0,0,0,0,41.251c0,9.839,10.987,14.507,19.308,8.49l-.247-.252c-6.4,3.793-11.048.014-11.048-8.238" transform="translate(0 -21.327)" fill="#100e0b"/>
      <path id="Caminho_40941" data-name="Caminho 40941" d="M67.657,53.333V52.96c3.729,0,5.857-2.323,10.461-8.913l-6.33-9.163c-1.108-1.625-1.735-2.264-3.612-2.264v-.372H81.937v.372c-1.56,0-1.835.611-1.835,1.385a3.493,3.493,0,0,0,.681,1.757l2.995,4.389c2.049-2.932,3.54-4.9,3.54-6.2,0-.983-.778-1.334-2.075-1.334v-.372h7.883v.372c-2.835,0-4.3,1.538-8.958,8.1l6.688,9.8c1.155,1.67,2.32,2.438,3.759,2.438v.373H81.448V52.96c1.186,0,1.611-.437,1.611-1.164a3.825,3.825,0,0,0-.864-1.845l-3.686-5.336c-2.632,3.82-3.363,5.04-3.363,6.127,0,1.3,1.028,2.218,2.809,2.218v.373Z" transform="translate(-47.977 -22.868)" fill="#100e0b"/>
      <path id="Caminho_40942" data-name="Caminho 40942" d="M170.361,49.245c-1.4-.018-2.491-.894-2.491-2.808,0-2.671.713-5.262,4.573-6.143l.029,6.391c-.1,1.529-.914,2.574-2.11,2.56m13.2-.413c-1.561,1.349-3.585.337-3.585-2.4V36.391c0-5.07-6.462-7.685-12.34-5.623l.062.349c3.3.024,4.73,2.247,4.73,6.159l.012,2.432c-6.327.774-9.343,2.232-10.888,4.274a5.754,5.754,0,0,0-1.213,3.552c0,3.922,3.8,4.892,5.567,4.892a7,7,0,0,0,6.654-4.278c.4,2.92,2.119,4.267,5.392,4.267a6.13,6.13,0,0,0,5.9-3.373Z" transform="translate(-113.699 -21.316)" fill="#100e0b"/>
      <path id="Caminho_40943" data-name="Caminho 40943" d="M168.622,42.749a3.109,3.109,0,0,0,3.163-3.163,3.163,3.163,0,1,0-3.163,3.163" transform="translate(-117.33 -25.828)" fill="#100e0b"/>
      <path id="Caminho_40944" data-name="Caminho 40944" d="M241.841,32.8v-.368l9.819-2.355v3.46c2.177-1.63,4.5-3.444,6.974-3.444,2.635,0,4.38,1.252,5.029,3.614,2.243-1.672,4.636-3.614,7.2-3.614,3.4,0,5.319,2.084,5.313,5.947V49.263c0,1.821.38,2.159,1.645,2.159v.372H267.13v-.372c1.138,0,1.56-.549,1.56-1.905V34.942c0-2.615-2.641-2.275-4.883-.6a9.506,9.506,0,0,1,.139,1.7V49.263c0,1.821.38,2.159,1.645,2.159v.372H254.9v-.372c1.138,0,1.56-.549,1.56-1.905V34.942c0-2.582-2.578-2.283-4.8-.66V49.9c0,1.189.717,1.526,1.645,1.526v.372H241.841v-.372c1.56,0,2.32-1.14,2.32-2.875V35.263a2.569,2.569,0,0,0-2.32-2.464" transform="translate(-171.493 -21.327)" fill="#100e0b"/>
      <path id="Caminho_40945" data-name="Caminho 40945" d="M378.742,39.42c.195-6.207,1.416-7.87,2.883-7.87,1.5,0,2.926,1.354,2.872,7.87Zm-8.04,1.83c0,9.036,9.2,13.593,17.159,9.632l-.246-.254c-5.214,1.763-8.9-2.123-8.9-9.378q0-.5.008-.97h12.736c0-6.326-3.593-10.205-9.834-10.205A11.173,11.173,0,0,0,370.7,41.251" transform="translate(-262.87 -21.327)" fill="#100e0b"/>
      <path id="Caminho_40946" data-name="Caminho 40946" d="M439.476,92.03a3.108,3.108,0,0,0,3.162-3.163,3.163,3.163,0,1,0-3.162,3.163" transform="translate(-309.396 -60.774)" fill="#100e0b"/>
      <rect id="Retângulo_145908" data-name="Retângulo 145908" width="23.221" height="2.687" transform="translate(135.702 6.406)" fill="#cf000c"/>
      <path id="Caminho_40947" data-name="Caminho 40947" d="M486.378,57.542c-3.448-1.836-8.195-2.732-14.24-2.732a47.109,47.109,0,0,0-5.623.323v2.68a52.777,52.777,0,0,1,5.891-.316c4.97,0,8.956.672,11.956,2.06s4.478,3.179,4.478,5.418a5.289,5.289,0,0,1-2.732,4.478,19.227,19.227,0,0,1-7.12,2.642,54.423,54.423,0,0,1-9.851.806c-.893,0-1.765-.027-2.622-.072v2.685c.86.045,1.732.073,2.622.073a51.377,51.377,0,0,0,8.553-.672,31.76,31.76,0,0,0,7.12-1.881,12.811,12.811,0,0,0,4.97-3.359,6.945,6.945,0,0,0,1.791-4.7c0-3.09-1.746-5.6-5.194-7.433" transform="translate(-330.812 -38.867)" fill="#cf000c"/>
      <path id="Caminho_40948" data-name="Caminho 40948" d="M582.017,46.868c-4.549-2.423-10.812-3.6-18.789-3.6a62.207,62.207,0,0,0-7.419.426v3.53a69.781,69.781,0,0,1,7.773-.41c6.558,0,11.817.886,15.776,2.718s5.908,4.195,5.908,7.149c0,2.3-1.182,4.313-3.6,5.908a25.377,25.377,0,0,1-9.394,3.486,71.818,71.818,0,0,1-13,1.063q-1.767,0-3.46-.09v3.545q1.7.089,3.46.09a67.778,67.778,0,0,0,11.285-.886,41.918,41.918,0,0,0,9.394-2.482,16.906,16.906,0,0,0,6.558-4.431,9.165,9.165,0,0,0,2.363-6.2c0-4.077-2.3-7.385-6.854-9.808" transform="translate(-394.132 -30.679)" fill="#cf000c"/>
      <rect id="Retângulo_145909" data-name="Retângulo 145909" width="30.639" height="3.545" transform="translate(161.677)" fill="#cf000c"/>
      <path id="Caminho_40949" data-name="Caminho 40949" d="M688.469,85.21h-4.212l-.577,1.023h-1.491l3.382-6.013h1.584l3.382,6.013h-1.491Zm-.761-1.358-1.345-2.409-1.345,2.409Z" transform="translate(-483.75 -56.885)" fill="#cf000c"/>
      <path id="Caminho_40950" data-name="Caminho 40950" d="M723.906,80.22v6.013H722.33l-4.881-4.483v4.483h-1.276V80.22h1.568l4.889,4.492V80.22Z" transform="translate(-507.849 -56.885)" fill="#cf000c"/>
      <path id="Caminho_40951" data-name="Caminho 40951" d="M752.278,85.811a4.874,4.874,0,0,1-1.3-.579,2.846,2.846,0,0,1-.953-.987,2.678,2.678,0,0,1-.008-2.7,2.992,2.992,0,0,1,.938-1,4.792,4.792,0,0,1,1.3-.589,5.2,5.2,0,0,1,1.453-.208,5.291,5.291,0,0,1,1.46.208,4.855,4.855,0,0,1,1.292.589,3.018,3.018,0,0,1,.945,1,2.6,2.6,0,0,1,.353,1.34,2.646,2.646,0,0,1-.361,1.358,2.935,2.935,0,0,1-.961.987,4.884,4.884,0,0,1-1.3.579,5.011,5.011,0,0,1-2.859,0m2.39-1.259a3.5,3.5,0,0,0,.869-.308,1.678,1.678,0,0,0,.646-.553,1.449,1.449,0,0,0-.177-1.811,2.4,2.4,0,0,0-1.015-.6,4.878,4.878,0,0,0-2.567,0,2.335,2.335,0,0,0-1.007.6,1.359,1.359,0,0,0-.423,1.005,1.4,1.4,0,0,0,.246.806,1.678,1.678,0,0,0,.646.553,3.4,3.4,0,0,0,.869.308,4.128,4.128,0,0,0,.953.108,4.243,4.243,0,0,0,.961-.108" transform="translate(-531.592 -56.554)" fill="#cf000c"/>
      <path id="Caminho_40952" data-name="Caminho 40952" d="M785.3,85.6a2.256,2.256,0,0,1-1.291-1.159l1.176-.661c.238.588,1.1.878,2.582.878,1.437,0,2.16-.172,2.16-.525,0-.145-.1-.245-.307-.308a12.6,12.6,0,0,0-1.414-.208c-.215-.027-.384-.054-.507-.063-.43-.054-.784-.108-1.068-.154s-.577-.1-.868-.172a3.293,3.293,0,0,1-.7-.245,2.118,2.118,0,0,1-.484-.335,1.139,1.139,0,0,1-.315-.471,1.663,1.663,0,0,1-.1-.616c0-1.2,1.168-1.811,3.5-1.811a5.611,5.611,0,0,1,2.29.408,2.014,2.014,0,0,1,1.169,1.168l-1.191.679q-.1-.9-2.214-.9a10.5,10.5,0,0,0-1.668.1c-.361.063-.546.19-.546.38,0,.154.108.263.315.317a9.076,9.076,0,0,0,1.291.2c.315.036.569.063.746.091.415.045.761.09,1.03.136s.554.108.838.172a3.625,3.625,0,0,1,.676.236,2.538,2.538,0,0,1,.469.326,1.039,1.039,0,0,1,.307.444,1.829,1.829,0,0,1,.092.606,1.539,1.539,0,0,1-.254.9,1.678,1.678,0,0,1-.746.588,4.457,4.457,0,0,1-1.13.317,9.988,9.988,0,0,1-1.468.1A5.969,5.969,0,0,1,785.3,85.6" transform="translate(-555.953 -56.554)" fill="#cf000c"/>
    </g>
  </g>
</svg>
